<svg width="16" height="15" viewBox="0 0 16 15" fill="none" xmlns="http://www.w3.org/2000/svg">
<path d="M6.44211 0C3.16451 0 0.5 2.60384 0.5 5.8068C0.5 9.00975 3.16451 11.6136 6.44211 11.6136C7.73972 11.6136 8.9375 11.2007 9.91562 10.5088L14.5115 15L15.5 14.034L10.9465 9.58415C11.8402 8.56776 12.3842 7.24949 12.3842 5.8068C12.3842 2.60384 9.71971 0 6.44211 0ZM6.44211 0.683152C9.3419 0.683152 11.6851 2.97304 11.6851 5.8068C11.6851 8.64055 9.3419 10.9304 6.44211 10.9304C3.54232 10.9304 1.19907 8.64055 1.19907 5.8068C1.19907 2.97304 3.54232 0.683152 6.44211 0.683152Z" fill="#EBE0E0"/>
</svg>
